<?xml version="1.0" encoding="utf-8"?>
<!-- Generator: Adobe Illustrator 19.2.1, SVG Export Plug-In . SVG Version: 6.00 Build 0)  -->
<svg version="1.1" id="Layer_1" xmlns="http://www.w3.org/2000/svg" xmlns:xlink="http://www.w3.org/1999/xlink" x="0px" y="0px"
	 viewBox="0 0 154 155" style="enable-background:new 0 0 154 155;" xml:space="preserve">
<style type="text/css">
	.st0{fill:#E5E5E5;}
	.st1{filter:url(#Adobe_OpacityMaskFilter);}
	.st2{fill:#FFFFFF;}
	.st3{mask:url(#mask-2);fill:#E5E5E5;}
</style>
<g id="UI">
	<g id="Artboard" transform="translate(-290.000000, -120.000000)">
		<g id="logo_2017_no_text" transform="translate(290.000000, 120.000000)">
			<polygon id="Fill-24" class="st0" points="112,90.2 28,153 90.8,69 			"/>
			<polygon id="Fill-26" class="st0" points="129,6 66.2,90 45,68.8 			"/>
			<g id="Group-30">
				<g id="Fill-28-Clipped">
					<defs>
						<filter id="Adobe_OpacityMaskFilter" filterUnits="userSpaceOnUse" x="0" y="0" width="119.9" height="136.7">
							<feColorMatrix  type="matrix" values="1 0 0 0 0  0 1 0 0 0  0 0 1 0 0  0 0 0 1 0"/>
						</filter>
					</defs>
					<mask maskUnits="userSpaceOnUse" x="0" y="0" width="119.9" height="136.7" id="mask-2">
						<g class="st1">
							<polygon id="path-1" class="st2" points="0,136.8 0,0 119.9,0 119.9,136.8 							"/>
						</g>
					</mask>
					<path id="Fill-28" class="st3" d="M27.9,136.8l7.4-10c-14-11.9-23-29.7-23-49.5c0-35.7,29-64.8,64.6-64.8
						c13.1,0,25.3,3.9,35.5,10.7l7.4-10C107.7,4.9,92.9,0,77,0C34.5,0,0,34.7,0,77.3C0,101.2,10.9,122.6,27.9,136.8"/>
				</g>
			</g>
			<path id="Fill-31" class="st0" d="M129.6,21l-7.5,10c12,11.8,19.5,28.3,19.5,46.5c0,35.9-29,65-64.7,65c-11.4,0-22.2-3-31.5-8.3
				l-7.5,10c11.4,6.8,24.8,10.7,39,10.7c42.5,0,77-34.8,77-77.5C154,55.2,144.6,35.1,129.6,21"/>
		</g>
	</g>
</g>
</svg>
